<?xml version="1.0" standalone="no"?><!DOCTYPE svg PUBLIC "-//W3C//DTD SVG 1.1//EN" "http://www.w3.org/Graphics/SVG/1.1/DTD/svg11.dtd"><svg t="1508078566336" class="icon" style="" viewBox="0 0 1024 1024" version="1.1" xmlns="http://www.w3.org/2000/svg" p-id="2104" xmlns:xlink="http://www.w3.org/1999/xlink" width="128" height="128"><defs><style type="text/css"></style></defs><path d="M723.894 357.819l-263.25 263.25-168.694-167.681c-7.174-7.111-17.051-11.508-27.956-11.508s-20.783 4.395-27.959 11.511c-7.109 7.171-11.505 17.049-11.505 27.953 0 10.905 4.395 20.782 11.51 27.959l196.591 196.591c8.156 8.1 18 11.7 27.956 11.7 0.039 0 0.087 0 0.135 0 10.897 0 20.749-4.478 27.814-11.693l291.27-291.27c7.113-7.174 11.508-17.051 11.508-27.956s-4.395-20.782-11.511-27.959c-7.117-7.574-17.202-12.294-28.389-12.294-10.748 0-20.477 4.355-27.52 11.397z" p-id="2105" fill="#ffffff"></path><path d="M512 62c-248.906 0-450 201.094-450 450s201.094 450 450 450 450-201.094 450-450-201.094-450-450-450zM512 925.888c-228.15 0-413.888-185.738-413.888-413.888s185.738-413.888 413.888-413.888c228.15 0 413.888 185.738 413.888 413.888 0 228.15-185.738 413.888-413.888 413.888z" p-id="2106" fill="#ffffff"></path></svg>