<?xml version="1.0" standalone="no"?><!DOCTYPE svg PUBLIC "-//W3C//DTD SVG 1.1//EN" "http://www.w3.org/Graphics/SVG/1.1/DTD/svg11.dtd"><svg t="1503648275713" class="icon" style="" viewBox="0 0 1024 1024" version="1.1" xmlns="http://www.w3.org/2000/svg" p-id="11977" xmlns:xlink="http://www.w3.org/1999/xlink" width="128" height="128"><defs><style type="text/css"></style></defs><path d="M0.2 0h1024v1024H0.2z" fill="#5CAA7B" p-id="11978"></path><path d="M416.2 199c-1.4 49.6-42.6 88.6-92.2 87.4-49.6-1.4-88.6-42.6-87.4-92.2 0.6-21.2 6.8-41.8 21-55.4 13.8-13 158.6 60.2 158.6 60.2z" fill="#FFE885" p-id="11979"></path><path d="M321.2 227.4c0 12.6-16.4 16.2-29 16.2-12.6 0-22.6-10.2-22.6-22.8 0-12.6 11-27.6 23.4-25.6 13.8 2 28.2 19.6 28.2 32.2zM331.2 234.4c9.4-2.4 14.6 11.2 7.2 19-3.2 3.6-16 4.2-14.4-5.4 1.8-10.8 2.8-12.4 7.2-13.6z" fill="#FFAF5F" p-id="11980"></path><path d="M608 199c1.4 49.6 42.6 88.6 92.2 87.4 49.6-1.4 88.6-42.6 87.4-92.2-0.6-21.2-6.8-41.8-21-55.4-13.6-13-158.6 60.2-158.6 60.2z" fill="#FFE885" p-id="11981"></path><path d="M715.2 246.6c-11-6-6.2-22.2-0.2-33.2 6-11 19.8-15 30.8-9s18.8 22.8 11.2 32.8c-8.6 11.4-31 15.4-41.8 9.4zM704 252.2c-2.4 9.4-16.8 7.4-20.2-2.8-1.6-4.6 4-16 11.8-10.2 8.6 6.8 9.6 8.4 8.4 13z" fill="#FFAF5F" p-id="11982"></path><path d="M460.6 440.8C496 658.2 495 778 432.6 778S215.2 496.4 215.2 434s50.6-113 113-113 121 49 132.4 119.8zM559.6 440.8c-35.4 217.4-34.4 337.4 28 337.4s217.4-281.6 217.4-344-50.6-113-113-113-120.8 48.8-132.4 119.6z" fill="#FFE885" p-id="11983"></path><path d="M512.4 836.2m-116.2 0a116.2 116.2 0 1 0 232.4 0 116.2 116.2 0 1 0-232.4 0Z" fill="#8E4F3D" p-id="11984"></path><path d="M417.6 583.8c0 24.2-32 31.2-56.2 31.2s-44-19.6-44-44c0-24.2 21.2-53.4 45.2-49.8 27.2 4.4 55 38.4 55 62.6zM343.4 511c0.4 9-21.8 18.6-30.6 18.6s-16.2-7.2-16.2-16.2-1.8-24.6 6-29c12.2-6.8 40.2 14.2 40.8 26.6zM428.2 519.6c0 9-3.4 25.4-12.4 25.4s-23.4-14.6-23.4-23.4c0-9 10.8-18.2 19.8-18.2s16 7.4 16 16.2zM620 583.8c0 24.2 32 31.2 56.2 31.2 24.2 0 44-19.6 44-44 0-24.2-21.2-53.4-45.2-49.8-27.2 4.4-55 38.4-55 62.6zM694.2 511c-0.4 9 21.8 18.6 30.6 18.6s16.2-7.2 16.2-16.2 1.8-24.6-6-29c-12.4-6.8-40.2 14.2-40.8 26.6zM598.4 519.6c0 9 3.4 25.4 12.4 25.4s23.4-14.6 23.4-23.4c0-9-10.8-18.2-19.8-18.2-8.8 0-16 7.4-16 16.2z" fill="#FFAF5F" p-id="11985"></path><path d="M432.6 171.2m-40 0a40 40 0 1 0 80 0 40 40 0 1 0-80 0Z" fill="#8E4F3D" p-id="11986"></path><path d="M592.8 171.2m-40 0a40 40 0 1 0 80 0 40 40 0 1 0-80 0Z" fill="#8E4F3D" p-id="11987"></path><path d="M467.062667 828.658171a32.6 16.4 62.269 1 0 29.032657-15.26253 32.6 16.4 62.269 1 0-29.032657 15.26253Z" fill="#EFAB60" p-id="11988"></path><path d="M560.467303 828.704938a16.4 32.6 27.731 1 0-29.032658-15.26253 16.4 32.6 27.731 1 0 29.032658 15.26253Z" fill="#EFAB60" p-id="11989"></path><path d="M327 395.8h91.2v64.4h-91.2z" fill="#EFAB60" p-id="11990"></path><path d="M616.4 395.8h91.2v64.4h-91.2z" fill="#EFAB60" p-id="11991"></path><path d="M370.2 257.6c12.8-2.8 22.6-14.2 22.6-27.8l18.6 5.2s4.8 31.4 0 34.2c-4.8 2.8-21.2 11.2-21.2 11.2l-30.8-3.8M655.4 257.6c-12.8-2.8-22.6-14.2-22.6-27.8l-18.6 5.2s-4.8 31.4 0 34.2 21.2 11.2 21.2 11.2l30.8-3.8" fill="#EFAB60" p-id="11992"></path></svg>