<?xml version="1.0" standalone="no"?><!DOCTYPE svg PUBLIC "-//W3C//DTD SVG 1.1//EN" "http://www.w3.org/Graphics/SVG/1.1/DTD/svg11.dtd"><svg t="1505640828181" class="icon" style="" viewBox="0 0 1024 1024" version="1.1" xmlns="http://www.w3.org/2000/svg" p-id="1418" xmlns:xlink="http://www.w3.org/1999/xlink" width="128" height="128"><defs><style type="text/css"></style></defs><path d="M437.189341 48.18438L329.386035 276.53397a22.869092 22.869092 0 0 1-17.066487 13.254971l-241.092566 36.636058C2.904148 336.778667-23.833348 422.793759 24.806139 472.28657l174.47638 177.719013c5.688829 5.745717 8.30569 14.222072 6.940372 22.755316L165.03577 923.695139c-11.434546 69.688153 59.732703 123.732027 121.172054 89.997272l215.663501-118.498305a20.93489 20.93489 0 0 1 20.309119 0l215.606613 118.498305c61.439351 33.734755 132.663489-20.309119 121.285831-89.997272l-41.244009-250.991129a26.453054 26.453054 0 0 1 6.940371-22.698427l174.476381-177.719013c48.639487-49.492811 21.845103-135.507903-46.363955-145.861571l-241.149455-36.636058a22.755315 22.755315 0 0 1-17.066486-13.198083L586.919316 48.18438a82.203577 82.203577 0 0 0-149.673086 0z" p-id="1419" fill="#ffffff"></path></svg>