<?xml version="1.0" standalone="no"?><!DOCTYPE svg PUBLIC "-//W3C//DTD SVG 1.1//EN" "http://www.w3.org/Graphics/SVG/1.1/DTD/svg11.dtd"><svg t="1505640877926" class="icon" style="" viewBox="0 0 1024 1024" version="1.1" xmlns="http://www.w3.org/2000/svg" p-id="2379" xmlns:xlink="http://www.w3.org/1999/xlink" width="128" height="128"><defs><style type="text/css"></style></defs><path d="M216.448 505.301333a231.68 231.68 0 0 1-95.573333-187.306666C120.874667 189.44 225.962667 85.333333 355.541333 85.333333c129.621333 0 234.666667 104.149333 234.666667 232.618667a231.68 231.68 0 0 1-95.530667 187.349333c102.997333 50.773333 173.781333 156.16 173.781334 277.930667v77.738667A77.653333 77.653333 0 0 1 590.464 938.666667l-469.802667-0.298667A78.165333 78.165333 0 0 1 42.666667 860.757333v-77.525333c0-121.770667 70.784-227.157333 173.781333-277.930667z m459.818667 0.981334a196.138667 196.138667 0 0 0-33.621334 28.544c64.554667 77.397333 104.021333 180.992 104.021334 294.826666v108.672h156.458666c43.178667 0 78.208-35.498667 78.208-77.056V666.88c0-66.858667-34.133333-125.824-86.058666-160.64 29.013333-28.16 46.933333-67.413333 46.933333-110.762667 0-85.674667-70.016-155.093333-156.416-155.093333S629.333333 309.845333 629.333333 395.52c0 43.392 17.962667 82.602667 46.933334 110.762667z" p-id="2380" fill="#ffffff"></path></svg>