<?xml version="1.0" standalone="no"?><!DOCTYPE svg PUBLIC "-//W3C//DTD SVG 1.1//EN" "http://www.w3.org/Graphics/SVG/1.1/DTD/svg11.dtd"><svg t="1505654537043" class="icon" style="" viewBox="0 0 1024 1024" version="1.1" xmlns="http://www.w3.org/2000/svg" p-id="5432" xmlns:xlink="http://www.w3.org/1999/xlink" width="128" height="128"><defs><style type="text/css"></style></defs><path d="M899.274324 305.231773c0 152.348804-0.016373 304.697607 0.090051 457.046411 0.00307 4.0175-0.451278 5.448082-5.095042 5.445012-255.571746-0.145309-511.142469-0.145309-766.714216 0-4.64581 0.00307-5.098111-1.429559-5.095042-5.446036 0.106424-152.348804 0.090051-304.697607 0.090051-457.046411 3.539616-0.535189 4.949732 2.476401 6.848988 4.369517 34.532491 34.421974 68.994374 68.914556 103.471606 103.391788 71.387887 71.387887 142.809543 142.744052 214.083843 214.246549 4.27742 4.290723 8.606005 6.031367 14.627139 5.986341 32.694633-0.24764 65.394383-0.265036 98.087992 0.008186 6.429433 0.053212 11.042497-1.817392 15.611559-6.395664 105.347327-105.572454 210.82666-211.012901 316.337715-316.422649C893.775076 308.262806 895.336642 304.889989 899.274324 305.231773z" p-id="5433" fill="#ffffff"></path><path d="M185.65128 244.424872c216.84063 0 433.680237 0 650.520867 0 0.690732 1.540076-0.36225 2.535753-1.182942 3.542686-1.207501 1.481747-2.63092 2.77009-3.981684 4.121877C727.089753 356.00925 623.170962 459.929064 519.251148 563.847855c-8.319479 8.319479-8.357342 8.319479-16.682961-0.00614C398.647349 459.923948 294.721395 356.010273 190.855816 252.03827 188.710966 249.891374 185.315636 248.361531 185.65128 244.424872z" p-id="5434" fill="#ffffff"></path></svg>