<?xml version="1.0" standalone="no"?><!DOCTYPE svg PUBLIC "-//W3C//DTD SVG 1.1//EN" "http://www.w3.org/Graphics/SVG/1.1/DTD/svg11.dtd"><svg t="1507366304355" class="icon" style="" viewBox="0 0 1024 1024" version="1.1" xmlns="http://www.w3.org/2000/svg" p-id="3408" xmlns:xlink="http://www.w3.org/1999/xlink" width="128" height="128"><defs><style type="text/css"></style></defs><path d="M867.6 91.7H153.3c-49.3 0-89.3 40-89.3 86.2v560.4c0 46.2 40 86.2 89.3 86.2h246.3s6.1 6.1 15.4 18.4c3.1 3.1 6.1 6.1 9.3 12.3 0 0 6.1 9.3 9.3 12.3 27.7 43.1 49.3 64.7 83.1 64.7s58.5-21.6 86.2-64.7c21.6-33.8 27.7-43.1 27.7-43.1h240.2c49.3 0 89.3-40 89.3-86.2V177.9c-3.2-49.2-43.2-86.2-92.5-86.2z m46.3 646.7c0 24.7-18.4 43.1-43.1 43.1H627.5c-6.1 0-9.3 0-15.4 3.1-9.3 6.1-18.4 12.3-27.7 27.7-3.1 6.1-21.6 33.8-21.6 33.8-18.4 30.8-33.8 43.1-46.2 43.1-12.3 0-24.7-12.3-46.2-43.1-3.1-3.1-6.1-12.3-9.3-12.3-3.1-6.1-6.1-9.3-9.3-12.3-18.4-24.7-30.8-37-52.4-37H153.3c-24.7 0-43.1-18.4-43.1-43.1V181.1c0-24.7 21.6-43.1 46.2-43.1h714.5c24.7 0 46.2 18.4 46.2 43.1v557.4h-3.2v-0.1z" p-id="3409" fill="#ffffff"></path><path d="M230.2 476.6c0 27.2 22.1 49.3 49.3 49.3 27.2 0 49.3-22.1 49.3-49.3 0-27.2-22.1-49.3-49.3-49.3-27.2 0.1-49.3 22.1-49.3 49.3z m230.9 0c0 27.2 22.1 49.3 49.3 49.3 27.2 0 49.3-22.1 49.3-49.3 0-27.2-22.1-49.3-49.3-49.3s-49.3 22.1-49.3 49.3z m227.9 0c0 27.2 22.1 49.3 49.3 49.3s49.3-22.1 49.3-49.3c0-27.2-22.1-49.3-49.3-49.3S689 449.4 689 476.6z" p-id="3410" fill="#ffffff"></path></svg>