<?xml version="1.0" standalone="no"?><!DOCTYPE svg PUBLIC "-//W3C//DTD SVG 1.1//EN" "http://www.w3.org/Graphics/SVG/1.1/DTD/svg11.dtd"><svg t="1502008635980" class="icon" style="" viewBox="0 0 1024 1024" version="1.1" xmlns="http://www.w3.org/2000/svg" p-id="11171" xmlns:xlink="http://www.w3.org/1999/xlink" width="128" height="128"><defs><style type="text/css"></style></defs><path d="M575.031508 1023.992h-0.032c-96.151249 0-181.438583-6.119952-253.50202-18.223858-22.839822-3.83197-77.351396-20.735838-94.64726-26.207795H113.93111c-40.895681 0-74.167421-33.27174-74.167421-74.18342V496.70012c0-39.71169 31.343755-72.247436 70.591449-74.119421l137.950922-28.16778 56.823556-45.319646L466.080359 41.711674C479.472254 15.33588 503.896063 0 532.919837 0c26.91179 0 55.687565 13.543894 83.303349 39.167694 49.999609 46.455637 36.087718 110.663135 25.903797 157.518769-1.439989 6.775947-2.903977 13.479895-4.167967 20.047844l-30.399763 137.710924h267.861908c59.999531 0 108.80715 47.095632 108.80715 104.96718 0 28.655776-11.951907 54.663573-31.343755 73.623425 19.391849 18.959852 31.343755 44.983649 31.343755 73.655424 0 28.663776-11.983906 54.663573-31.343755 73.623425 19.359849 18.959852 31.343755 44.983649 31.343755 73.663425 0 28.655776-11.951907 54.647573-31.343755 73.607424 19.391849 18.959852 31.343755 44.991649 31.343755 73.671425 0 43.399661-36.575714 94.807259-104.343185 104.583183-6.135952 0.839993-142.12689 18.151858-304.853618 18.151858zM532.919837 62.631511c-3.759971 0-7.70394 0.943993-11.191913 7.799939L357.537207 383.989a31.335755 31.335755 0 0 1-8.207936 9.951922l-67.85547 54.135577a31.375755 31.375755 0 0 1-13.255896 6.207952l-148.006844 30.207764a31.823751 31.823751 0 0 1-6.271951 0.623995c-6.35995 0-11.54391 5.199959-11.54391 11.57591v408.668807c0 6.35995 5.18396 11.55191 11.54391 11.55191h117.77508c3.215975 0 6.44795 0.495996 9.519925 1.503988 19.063851 6.087952 72.503434 22.535824 90.623292 25.5678 68.687463 11.51991 150.494824 17.367864 243.150101 17.367864 158.534761 0 295.053695-17.367864 296.429684-17.551862 34.095734-4.919962 50.175608-28.319779 50.175608-42.535668 0-23.359818-20.703838-42.351669-46.167639-42.351669a31.303755 31.303755 0 0 1-31.319756-31.319756 31.295756 31.295756 0 0 1 31.319756-31.311755c25.471801 0 46.167639-18.959852 46.167639-42.29567 0-23.359818-20.703838-42.351669-46.167639-42.351669a31.295756 31.295756 0 0 1-31.319756-31.311755 31.303755 31.303755 0 0 1 31.319756-31.319755c25.471801 0 46.167639-18.991852 46.167639-42.30367 0-23.351818-20.703838-42.343669-46.167639-42.343669a31.311755 31.311755 0 1 1 0-62.623511c25.471801 0 46.167639-18.975852 46.167639-42.311669 0-23.351818-20.703838-42.335669-46.167639-42.335669H568.607558a31.255756 31.255756 0 0 1-24.39981-11.703909 31.231756 31.231756 0 0 1-6.175951-26.359794l38.591698-174.934633c1.191991-6.223951 2.751979-13.399895 4.311966-20.639839 10.27192-47.42363 14.887884-77.711393-7.343942-98.383232-21.79983-20.239842-35.687721-22.431825-40.671682-22.431824z" fill="#007ACC" p-id="11172"></path></svg>