<?xml version="1.0" standalone="no"?><!DOCTYPE svg PUBLIC "-//W3C//DTD SVG 1.1//EN" "http://www.w3.org/Graphics/SVG/1.1/DTD/svg11.dtd"><svg t="1501936841927" class="icon" style="" viewBox="0 0 1024 1024" version="1.1" xmlns="http://www.w3.org/2000/svg" p-id="2329" xmlns:xlink="http://www.w3.org/1999/xlink" width="128" height="128"><defs><style type="text/css"></style></defs><path d="M471 771h84v148h-84z" fill="#272D33" p-id="2330"></path><path d="M928.931 549.881l-396.122-440.43a28.003 28.003 0 0 0-41.637 0L94.448 550.549a27.998 27.998 0 0 0-4.755 30.125 27.997 27.997 0 0 0 25.574 16.599h0.012l113.427-0.049v298.601c0 15.464 12.536 28 28 28H415V745c0-16.5 13.5-30 30-30h136c16.5 0 30 13.5 30 30v178.825h158.752c15.464 0 28-12.536 28-28v-298.6l110.949 0.048h0.033c15.464 0 28-12.536 28-28 0-7.527-2.97-14.36-7.803-19.392z" fill="#272D33" p-id="2331"></path></svg>