<?xml version="1.0" standalone="no"?><!DOCTYPE svg PUBLIC "-//W3C//DTD SVG 1.1//EN" "http://www.w3.org/Graphics/SVG/1.1/DTD/svg11.dtd"><svg t="1501936816738" class="icon" style="" viewBox="0 0 1024 1024" version="1.1" xmlns="http://www.w3.org/2000/svg" p-id="2152" xmlns:xlink="http://www.w3.org/1999/xlink" width="128" height="128"><defs><style type="text/css"></style></defs><path d="M928.274 549.696l-396.122-440.43a28.003 28.003 0 0 0-41.637 0L93.792 550.364a27.998 27.998 0 0 0-4.755 30.125 27.997 27.997 0 0 0 25.574 16.599h0.012l113.427-0.049V895.64c0 15.464 12.536 28 28 28h513.046c15.464 0 28-12.536 28-28v-298.6l110.949 0.048h0.033c15.464 0 28-12.536 28-28a27.909 27.909 0 0 0-7.804-19.392zM469.075 867.64V767h84.517v100.64h-84.517z m300.032-326.612h-0.012a27.999 27.999 0 0 0-28 28V867.64H609.592V739c0-15.464-12.536-28-28-28H441.075c-15.464 0-28 12.536-28 28v128.64H284.05V569.027a28.002 28.002 0 0 0-28-28h-0.012l-78.561 0.033 333.857-371.199 333.856 371.2-76.083-0.033z" fill="#A1A5A8" p-id="2153"></path></svg>