<?xml version="1.0" standalone="no"?><!DOCTYPE svg PUBLIC "-//W3C//DTD SVG 1.1//EN" "http://www.w3.org/Graphics/SVG/1.1/DTD/svg11.dtd"><svg t="1506483693035" class="icon" style="" viewBox="0 0 1024 1024" version="1.1" xmlns="http://www.w3.org/2000/svg" p-id="1838" xmlns:xlink="http://www.w3.org/1999/xlink" width="128" height="128"><defs><style type="text/css"></style></defs><path d="M819.2 787.2 204.8 787.2c-12.8 0-19.2-6.4-25.6-12.8s-6.4-19.2 0-32l57.6-115.2L236.8 448c0-115.2 76.8-224 185.6-262.4C428.8 147.2 467.2 115.2 512 115.2S595.2 147.2 601.6 192c108.8 38.4 185.6 140.8 185.6 262.4l0 179.2 57.6 115.2c6.4 6.4 6.4 19.2 0 32S832 787.2 819.2 787.2zM256 729.6l512 0-38.4-76.8c0-6.4-6.4-6.4-6.4-12.8L723.2 448c0-96-64-185.6-160-204.8C550.4 236.8 537.6 224 544 211.2c0 0 0-6.4 0-6.4 0-12.8-12.8-25.6-32-25.6S480 185.6 480 204.8c0 0 0 0 0 6.4 0 12.8-6.4 32-25.6 32C364.8 268.8 294.4 352 294.4 448l0 185.6c0 6.4 0 6.4-6.4 12.8L256 729.6z" p-id="1839" fill="#A1A5A8"></path><path d="M422.4 819.2c0 51.2 38.4 89.6 89.6 89.6 51.2 0 89.6-38.4 89.6-89.6L422.4 819.2z" p-id="1840" fill="#A1A5A8"></path></svg>