<?xml version="1.0" standalone="no"?><!DOCTYPE svg PUBLIC "-//W3C//DTD SVG 1.1//EN" "http://www.w3.org/Graphics/SVG/1.1/DTD/svg11.dtd"><svg t="1501936685405" class="icon" style="" viewBox="0 0 1024 1024" version="1.1" xmlns="http://www.w3.org/2000/svg" p-id="1714" xmlns:xlink="http://www.w3.org/1999/xlink" width="128" height="128"><defs><style type="text/css"></style></defs><path d="M925.327 894.854c-16.941-165.472-131.218-302.112-284.637-351.74 75.826-44.466 126.75-126.813 126.75-221.065 0-141.444-114.663-256.107-256.107-256.107S255.227 180.604 255.227 322.048c0 94.743 51.45 177.463 127.931 221.763-152.336 50.205-265.622 186.345-282.484 351.043a28.132 28.132 0 0 0-0.513 5.333c0 15.464 12.536 28 28 28s28-12.536 28-28h0.26c3.628-35.22 12.396-69.446 26.226-102.145 18.054-42.684 43.911-81.03 76.854-113.972 32.943-32.942 71.288-58.8 113.972-76.854 44.162-18.679 91.107-28.15 139.529-28.15s95.367 9.471 139.529 28.15c42.684 18.054 81.03 43.911 113.972 76.854 32.942 32.943 58.8 71.288 76.854 113.972 13.83 32.698 22.598 66.925 26.226 102.145h0.26c0 15.464 12.536 28 28 28s28-12.536 28-28a28.38 28.38 0 0 0-0.516-5.333z m-614.1-572.806c0-53.45 20.815-103.702 58.61-141.497 37.795-37.795 88.046-58.61 141.497-58.61 53.45 0 103.702 20.815 141.497 58.61 37.795 37.795 58.61 88.046 58.61 141.497 0 53.45-20.815 103.702-58.61 141.497-37.795 37.795-88.046 58.61-141.497 58.61-53.45 0-103.702-20.815-141.497-58.61-37.795-37.795-58.61-88.047-58.61-141.497z" p-id="1715" fill="#A1A5A8"></path></svg>