<?xml version="1.0" standalone="no"?><!DOCTYPE svg PUBLIC "-//W3C//DTD SVG 1.1//EN" "http://www.w3.org/Graphics/SVG/1.1/DTD/svg11.dtd"><svg t="1501936768374" class="icon" style="" viewBox="0 0 1024 1024" version="1.1" xmlns="http://www.w3.org/2000/svg" p-id="1975" xmlns:xlink="http://www.w3.org/1999/xlink" width="128" height="128"><defs><style type="text/css"></style></defs><path d="M896.84 943.123c15.464 0 28-12.536 28-28 0-1.824-0.18-3.606-0.513-5.333-16.941-165.472-131.218-302.112-284.637-351.74 75.826-44.466 126.75-126.813 126.75-221.065 0-141.444-114.663-256.107-256.107-256.107S254.227 195.54 254.227 336.984c0 94.743 51.45 177.463 127.931 221.763C229.822 608.953 116.535 745.092 99.673 909.79a28.132 28.132 0 0 0-0.513 5.333c0 15.464 12.536 28 28 28" fill="#282B32" p-id="1976"></path></svg>